#!OML:ASF H:\Male1\Project 1\Capture day 1\Session 1\Male1.ASF
:FULLY-SPECIFIED
:DEGREES
205
root 9.94331 16.4604 0.976818 166.877 -249.021 -187.975
lowerback 12.0693 0.722696 -0.84647
upperback 4.58987 0.956913 -1.88291
thorax -1.94519 0.547898 -1.60981
lowerneck -9.98452 7.20231 8.18161
upperneck 4.60809 9.14399 -7.70382
head 3.72383 4.34705 -3.05721
rclavicle 2.04748e-014 -1.19271e-014
rhumerus -68.7765 1.80501 -90.8369
rradius 50.0319
rwrist -35.3421
rhand -38.1804 1.49808
rfingers 7.12502
rthumb -11.2133 -28.1822
lclavicle 2.04748e-014 -1.19271e-014
lhumerus -42.6698 -13.1379 67.887
lradius 71.9688
lwrist 9.1526
lhand -27.5555 17.8765
lfingers 7.12502
lthumb -0.956623 47.8541
rfemur -14.0389 11.5239 22.9592
rtibia 35.1539
rfoot -1.94747 -17.1821
rtoes -35.7672
lfemur -11.2634 -17.1758 -15.145
ltibia 37.6683
lfoot 1.59226 14.5188
ltoes -22.4001
206
root 10.0311 15.9943 1.06847 160.94 -251.872 -193.977
lowerback 11.9256 0.754741 0.00817163
upperback 4.55173 1.10612 -1.59556
thorax -1.89445 0.62704 -1.81019
lowerneck -9.85977 6.49674 8.01874
upperneck 4.80316 8.18102 -7.05773
head 3.65104 3.89811 -2.9137
rclavicle -4.57205e-015 2.06736e-014
rhumerus -68.1604 2.39844 -90.734
rradius 49.4537
rwrist -35.1715
rhand -38.6126 1.00422
rfingers 7.12502
rthumb -11.6301 -28.653
lclavicle -4.57205e-015 2.06736e-014
lhumerus -43.2977 -10.8793 66.8188
lradius 70.2472
lwrist 10.353
lhand -26.4394 18.9147
lfingers 7.12502
lthumb 0.121359 48.8945
rfemur -13.9691 11.2544 24.6121
rtibia 36.3675
rfoot -1.23132 -16.2361
rtoes -32.7475
lfemur -11.6869 -15.6492 -13.8115
ltibia 39.4741
lfoot -0.495678 8.93676
ltoes -31.117
207
root 10.0902 15.4918 1.1454 157.09 -255.142 -197.168
lowerback 12.4224 0.799626 -0.422565
upperback 4.62746 1.12598 -1.70119
thorax -2.08987 0.641534 -1.68987
lowerneck -9.40644 5.72952 7.58673
upperneck 4.4786 7.14177 -5.99806
head 3.34442 3.43065 -2.61719
rclavicle 5.76476e-015 4.77083e-015
rhumerus -67.6578 2.92126 -90.6222
rradius 49.5224
rwrist -35.4039
rhand -38.8815 0.441112
rfingers 7.12502
rthumb -11.8894 -29.2013
lclavicle 5.76476e-015 4.77083e-015
lhumerus -43.9932 -8.99828 66.2078
lradius 68.1911
lwrist 9.55808
lhand -28.5713 19.8469
lfingers 7.12502
lthumb -1.93772 49.8178
rfemur -12.7825 9.20575 25.1503
rtibia 38.1267
rfoot -11.7428 -14.7115
rtoes -32.8991
lfemur -11.0976 -13.8761 -14.5105
ltibia 41.2816
lfoot -12.0307 9.56679
ltoes -20.5587
208
root 10.1523 15.0812 1.22079 150.024 -258.443 -203.693
lowerback 12.9611 0.722313 -0.424139
upperback 4.75408 1.03674 -1.7532
thorax -2.25028 0.606159 -1.74064
lowerneck -9.08737 4.96198 7.65547
upperneck 4.15475 6.09229 -5.65034
head 3.1147 2.93131 -2.60476
rclavicle -2.38542e-014 -1.74931e-014
rhumerus -66.665 3.26193 -90.4798
rradius 49.2756
rwrist -35.2743
rhand -38.2478 0.436198
rfingers 7.12502
rthumb -11.2783 -29.2406
lclavicle -2.38542e-014 -1.74931e-014
lhumerus -44.4049 -7.46218 66.0757
lradius 65.8305
lwrist 9.18806
lhand -28.3047 20.9684
lfingers 7.12502
lthumb -1.68021 50.9415
rfemur -11.7362 7.1368 25.6377
rtibia 40.1094
rfoot -19.519 -14.2114
rtoes -37.8309
lfemur -11.7332 -12.7995 -14.9294
ltibia 43.9619
lfoot -21.0748 11.0767
ltoes -18.6973
209
root 10.2035 14.6812 1.29726 142.075 -261.942 -210.519
lowerback 14.332 0.675884 -1.49521
upperback 4.95093 0.846463 -1.80625
thorax -2.79966 0.521573 -1.18744
lowerneck -8.97443 4.28184 7.64313
upperneck 4.26239 5.19606 -5.67087
head 3.07007 2.48801 -2.66778
rclavicle 1.59028e-014 2.06736e-014
rhumerus -65.4649 3.89692 -90.1673
rradius 48.5221
rwrist -35.1019
rhand -37.342 1.49994
rfingers 7.12502
rthumb -10.4046 -28.2226
lclavicle 1.59028e-014 2.06736e-014
lhumerus -45.0057 -5.88594 66.6616
lradius 63.3908
lwrist 10.4172
lhand -27.3468 22.9008
lfingers 7.12502
lthumb -0.755072 52.8792
rfemur -10.9562 6.82463 25.6459
rtibia 43.3442
rfoot -30.3848 -16.5905
rtoes -42.2468
lfemur -12.1614 -12.4352 -16.3297
ltibia 47.6146
lfoot -29.4228 11.5314
ltoes -14.8377
210
root 10.2253 14.4812 1.35476 131.057 -265.124 -222.243
lowerback 14.2639 0.702233 -2.71863
upperback 4.88319 0.718654 -2.01271
thorax -2.84293 0.459514 -0.692493
lowerneck -8.67325 3.5974 6.90294
upperneck 3.05246 4.27059 -4.1745
head 2.80164 2.08234 -2.37613
rclavicle -1.17283e-014 7.95139e-015
rhumerus -62.9768 4.40665 -89.9629
rradius 46.8545
rwrist -34.9185
rhand -36.9424 2.5182
rfingers 7.12502
rthumb -10.019 -27.2233
lclavicle -1.17283e-014 7.95139e-015
lhumerus -44.953 -4.34666 67.4101
lradius 60.7761
lwrist 12.3557
lhand -26.5251 23.3573
lfingers 7.12502
lthumb 0.0385538 53.3371
rfemur -12.6107 5.5592 24.9722
rtibia 46.1221
rfoot -28.8849 -22.4684
rtoes -45.4227
lfemur -16.02 -14.5433 -16.9465
ltibia 52.0021
lfoot -29.6035 11.2681
ltoes -14.973
211
root 10.2381 14.223 1.37763 98.9653 -262.196 -254.643
lowerback 14.6051 0.777972 1.0764
upperback 5.06249 1.39736 -0.503566
thorax -2.80036 0.804408 -1.37211
lowerneck -8.25729 2.54666 6.13738
upperneck 1.58479 2.95249 -3.99634
head 2.12412 1.41991 -2.24173
rclavicle -9.74045e-015 -6.36111e-015
rhumerus -60.2371 5.00956 -89.3987
rradius 45.0324
rwrist -34.2566
rhand -36.294 0.792071
rfingers 7.12502
rthumb -9.39346 -28.9786
lclavicle -9.74045e-015 -6.36111e-015
lhumerus -44.11 -2.2068 69.1981
lradius 56.5549
lwrist 12.3515
lhand -27.0256 23.1165
lfingers 7.12502
lthumb -0.444802 53.0958
rfemur -15.2979 4.17435 29.4535
rtibia 49.0422
rfoot -29.1893 -20.4897
rtoes -29.764
lfemur -20.4024 -14.1761 -11.6862
ltibia 56.2947
lfoot -27.7104 8.20063
ltoes -17.8726
212
root 10.269 14.1072 1.36053 92.4681 -260.98 -260.351
lowerback 15.2528 0.91305 2.5691
upperback 5.75073 1.8616 -0.151598
thorax -2.37168 1.07764 -1.92893
lowerneck -8.87929 2.20714 5.67722
upperneck 1.38865 2.48533 -3.23628
head 2.11812 1.20101 -1.92369
rclavicle -2.78299e-015 1.90833e-014
rhumerus -56.9611 6.24988 -89.38
rradius 43.8482
rwrist -33.207
rhand -35.8977 0.280566
rfingers 7.12502
rthumb -9.01107 -29.507
lclavicle -2.78299e-015 1.90833e-014
lhumerus -43.7134 0.282676 70.3606
lradius 52.0047
lwrist 10.2325
lhand -27.9019 22.6536
lfingers 7.12502
lthumb -1.29116 52.6295
rfemur -14.9676 6.20888 31.6105
rtibia 50.6557
rfoot -29.5465 -24.3662
rtoes -28.49
lfemur -20.6458 -13.252 -10.4527
ltibia 58.4476
lfoot -29.4362 4.97472
ltoes -6.54421
213
root 10.3271 14.198 1.37127 88.8859 -260.726 -262.742
lowerback 16.0313 1.18169 2.54723
upperback 6.19436 2.27827 0.00556901
thorax -2.30326 1.30773 -1.83861
lowerneck -8.59843 1.79335 6.20811
upperneck 1.52518 1.89273 -3.23678
head 2.09319 0.911978 -2.05002
rclavicle -3.97569e-015 -3.49861e-014
rhumerus -54.6919 7.74603 -89.6921
rradius 43.6445
rwrist -32.6294
rhand -35.4726 -0.162961
rfingers 7.12502
rthumb -8.60091 -29.9678
lclavicle -3.97569e-015 -3.49861e-014
lhumerus -44.5184 1.88988 71.5339
lradius 47.3802
lwrist 8.13413
lhand -28.0351 22.2844
lfingers 7.12502
lthumb -1.41981 52.2594
rfemur -13.5218 3.74074 31.6728
rtibia 51.2117
rfoot -28.7956 -25.0924
rtoes -30.743
lfemur -18.4473 -13.446 -10.472
ltibia 58.2377
lfoot -30.4117 7.38335
ltoes -14.3645
214
root 10.3742 14.2514 1.40255 88.3183 -264.518 -263.469
lowerback 15.4019 1.96881 -2.34526
upperback 6.23033 2.57955 -0.588106
thorax -2.09313 1.40378 0.267285
lowerneck -7.68531 1.49637 5.62436
upperneck 1.19819 1.57399 -2.35543
head 1.77776 0.773257 -1.66428
rclavicle 4.37326e-015 6.36111e-015
rhumerus -52.5656 9.04882 -89.2839
rradius 43.8098
rwrist -31.264
rhand -35.0115 1.15279
rfingers 7.12502
rthumb -8.15591 -28.6698
lclavicle 4.37326e-015 6.36111e-015
lhumerus -45.6252 4.24749 72.5805
lradius 43.1524
lwrist 6.06292
lhand -26.0413 21.3367
lfingers 7.12502
lthumb 0.505813 51.3159
rfemur -13.4105 4.0081 27.7311
rtibia 51.0642
rfoot -29.5919 -23.6897
rtoes -28.0996
lfemur -17.3925 -13.8509 -14.7058
ltibia 56.725
lfoot -30.1957 8.32622
ltoes -15.2584
215
root 10.4343 14.3215 1.41893 74.6415 -266.348 -278.252
lowerback 14.1479 1.93004 -3.99346
upperback 5.82291 2.29448 -1.60999
thorax -1.85851 1.2432 0.209366
lowerneck -8.18876 1.28475 5.53861
upperneck 2.72475 1.20029 -0.858895
head 2.33571 0.647039 -1.18443
rclavicle -9.14409e-015 3.18055e-015
rhumerus -50.5915 8.61998 -89.5926
rradius 43.9672
rwrist -29.4346
rhand -34.676 2.03023
rfingers 7.12502
rthumb -7.83208 -27.8047
lclavicle -9.14409e-015 3.18055e-015
lhumerus -46.6125 5.76443 72.1304
lradius 38.62
lwrist 4.31318
lhand -22.8098 19.8356
lfingers 7.12502
lthumb 3.62682 49.7845
rfemur -13.7094 5.26424 26.0138
rtibia 50.0985
rfoot -30.4202 -24.4369
rtoes -25.6515
lfemur -17.639 -14.8771 -16.669
ltibia 54.9042
lfoot -29.2577 8.25679
ltoes -14.4421
216
root 10.4863 14.4068 1.39843 74.2633 -264.68 -279.452
lowerback 13.3114 1.6148 -2.00785
upperback 5.33956 2.10765 -1.54277
thorax -1.85672 1.15571 -0.786483
lowerneck -7.69668 1.13512 5.60022
upperneck 3.1812 0.982883 -0.0543552
head 2.38085 0.574499 -0.944887
rclavicle -1.70955e-014 -1.27222e-014
rhumerus -49.2 8.56595 -89.9829
rradius 44.7759
rwrist -29.5269
rhand -34.4848 3.16481
rfingers 7.12502
rthumb -7.64752 -26.6769
lclavicle -1.70955e-014 -1.27222e-014
lhumerus -47.7211 7.92289 71.289
lradius 34.0096
lwrist 2.27348
lhand -20.065 18.2413
lfingers 7.12502
lthumb 6.27708 48.1283
rfemur -13.5134 6.17989 27.8793
rtibia 48.7186
rfoot -30.4554 -25.5928
rtoes -25.2677
lfemur -17.7109 -15.3967 -14.7935
ltibia 53.3585
lfoot -28.6981 7.92004
ltoes -13.9784
217
root 10.5309 14.5374 1.37069 77.5107 -263.953 -276.95
lowerback 12.6411 1.51918 -0.872093
upperback 4.8805 2.08764 -1.61484
thorax -1.93643 1.1422 -1.4832
lowerneck -7.097 1.03935 5.62
upperneck 3.14085 0.875415 0.385306
head 2.24884 0.534395 -0.810366
rclavicle -1.13307e-014 3.02153e-014
rhumerus -48.2763 8.63655 -90.3074
rradius 46.271
rwrist -30.1158
rhand -34.6314 3.28529
rfingers 7.12502
rthumb -7.78901 -26.5512
lclavicle -1.13307e-014 3.02153e-014
lhumerus -48.7291 10.4833 69.9333
lradius 29.4854
lwrist 0.0453083
lhand -15.1348 17.9667
lfingers 7.12502
lthumb 11.0347 47.6567
rfemur -13.0653 7.3542 28.7274
rtibia 46.8488
rfoot -29.6424 -26.589
rtoes -25.35
lfemur -17.2554 -15.6465 -13.9294
ltibia 51.5222
lfoot -28.3487 8.2685
ltoes -14.4319
218
root 10.5738 14.6709 1.34747 78.8601 -263.879 -276.21
lowerback 11.9823 1.44967 -0.666096
upperback 4.66968 2.00768 -1.65045
thorax -1.79346 1.09608 -1.6067
lowerneck -7.13562 1.04648 5.34488
upperneck 3.09511 0.895949 0.690558
head 2.23527 0.550029 -0.66337
rclavicle 3.18055e-014 4.77083e-015
rhumerus -47.659 9.17306 -90.554
rradius 48.3434
rwrist -31.1145
rhand -34.7443 2.97625
rfingers 7.12502
rthumb -7.898 -26.8562
lclavicle 3.18055e-014 4.77083e-015
lhumerus -49.547 13.1715 68.7142
lradius 25.8689
lwrist -2.79218
lhand -11.6723 19.4017
lfingers 7.12502
lthumb 14.3728 48.8841
rfemur -12.3462 8.84988 28.9572
rtibia 44.8285
rfoot -29.1941 -27.4001
rtoes -24.2767
lfemur -16.4349 -16.1633 -13.8814
ltibia 49.4447
lfoot -27.9686 8.80769
ltoes -14.482
